<?xml version="1.0" encoding="UTF-8" standalone="no"?>
<!DOCTYPE svg PUBLIC "-//W3C//DTD SVG 1.1//EN"
 "http://www.w3.org/Graphics/SVG/1.1/DTD/svg11.dtd">
<!-- Generated by graphviz version 2.38.0 (20140413.2041)
 -->
<!-- Title: G Pages: 1 -->
<svg width="1106pt" height="635pt"
 viewBox="0.00 0.00 1105.78 635.00" xmlns="http://www.w3.org/2000/svg" xmlns:xlink="http://www.w3.org/1999/xlink">
<g id="graph0" class="graph" transform="scale(1 1) rotate(0) translate(4 631)">
<title>G</title>
<polygon fill="white" stroke="none" points="-4,4 -4,-631 1101.78,-631 1101.78,4 -4,4"/>
<text text-anchor="middle" x="548.889" y="-611.8" font-family="Times,serif" font-size="14.00">Foris controller &#45; Data flow</text>
<g id="clust1" class="cluster"><title>clusterA</title>
<polygon fill="none" stroke="black" points="143.297,-105 143.297,-180 213.892,-180 213.892,-105 143.297,-105"/>
<text text-anchor="middle" x="178.595" y="-164.8" font-family="Times,serif" font-size="14.00">Buses</text>
</g>
<g id="clust2" class="cluster"><title>clusterB</title>
<polygon fill="none" stroke="black" points="324.149,-159 324.149,-288 435.04,-288 435.04,-159 324.149,-159"/>
<text text-anchor="middle" x="379.595" y="-272.8" font-family="Times,serif" font-size="14.00">Foris Schema</text>
</g>
<g id="clust3" class="cluster"><title>clusterC</title>
<polygon fill="none" stroke="black" points="536.047,-8 536.047,-345 826.186,-345 826.186,-8 536.047,-8"/>
<text text-anchor="middle" x="681.116" y="-329.8" font-family="Times,serif" font-size="14.00">Modules</text>
</g>
<g id="clust4" class="cluster"><title>clusterD</title>
<polygon fill="lightgreen" stroke="black" points="547.595,-169 547.595,-314 818.186,-314 818.186,-169 547.595,-169"/>
</g>
<g id="clust5" class="cluster"><title>clusterDA</title>
<polygon fill="lightgreen" stroke="black" points="694.095,-177 694.095,-306 810.186,-306 810.186,-177 694.095,-177"/>
<text text-anchor="middle" x="752.14" y="-290.8" font-family="Times,serif" font-size="14.00">Handlers</text>
</g>
<g id="clust6" class="cluster"><title>clusterE</title>
<polygon fill="lightblue" stroke="black" points="544.047,-16 544.047,-161 818.186,-161 818.186,-16 544.047,-16"/>
</g>
<g id="clust7" class="cluster"><title>clusterDB</title>
<polygon fill="lightblue" stroke="black" points="694.095,-24 694.095,-153 810.186,-153 810.186,-24 694.095,-24"/>
<text text-anchor="middle" x="752.14" y="-137.8" font-family="Times,serif" font-size="14.00">Handlers</text>
</g>
<g id="clust8" class="cluster"><title>clusterF</title>
<polygon fill="none" stroke="black" points="863.138,-11 863.138,-356 1089.78,-356 1089.78,-11 863.138,-11"/>
<text text-anchor="middle" x="976.458" y="-340.8" font-family="Times,serif" font-size="14.00">Backends</text>
</g>
<!-- ubus -->
<g id="node1" class="node"><title>ubus</title>
<ellipse fill="none" stroke="black" cx="178.595" cy="-131" rx="27.0966" ry="18"/>
<text text-anchor="middle" x="178.595" y="-127.3" font-family="Times,serif" font-size="14.00">ubus</text>
</g>
<!-- message_router -->
<g id="node2" class="node"><title>message_router</title>
<ellipse fill="none" stroke="black" cx="379.595" cy="-131" rx="68.4888" ry="18"/>
<text text-anchor="middle" x="379.595" y="-127.3" font-family="Times,serif" font-size="14.00">Message Router</text>
</g>
<!-- ubus&#45;&gt;message_router -->
<g id="edge12" class="edge"><title>ubus&#45;&gt;message_router</title>
<path fill="none" stroke="black" d="M206.02,-131C230.261,-131 267.399,-131 301.022,-131"/>
<polygon fill="black" stroke="black" points="301.325,-134.5 311.325,-131 301.325,-127.5 301.325,-134.5"/>
</g>
<!-- module1 -->
<g id="node5" class="node"><title>module1</title>
<ellipse fill="none" stroke="black" cx="582.595" cy="-203" rx="27" ry="18"/>
<text text-anchor="middle" x="582.595" y="-199.3" font-family="Times,serif" font-size="14.00">dns</text>
</g>
<!-- message_router&#45;&gt;module1 -->
<g id="edge14" class="edge"><title>message_router&#45;&gt;module1</title>
<path fill="none" stroke="black" d="M427.974,-143.887C439.536,-147.278 451.821,-151.088 463.095,-155 493.137,-165.424 526.665,-179.213 550.37,-189.337"/>
<polygon fill="black" stroke="black" points="549.004,-192.559 559.574,-193.294 551.769,-186.129 549.004,-192.559"/>
</g>
<!-- module2 -->
<g id="node8" class="node"><title>module2</title>
<ellipse fill="none" stroke="black" cx="582.595" cy="-104" rx="30.5947" ry="18"/>
<text text-anchor="middle" x="582.595" y="-100.3" font-family="Times,serif" font-size="14.00">about</text>
</g>
<!-- message_router&#45;&gt;module2 -->
<g id="edge15" class="edge"><title>message_router&#45;&gt;module2</title>
<path fill="none" stroke="black" d="M440.629,-122.936C473.598,-118.507 513.541,-113.142 542.479,-109.254"/>
<polygon fill="black" stroke="black" points="543.164,-112.694 552.609,-107.894 542.232,-105.756 543.164,-112.694"/>
</g>
<!-- schema1 -->
<g id="node3" class="node"><title>schema1</title>
<ellipse fill="lightgreen" stroke="black" cx="379.595" cy="-239" rx="40.0939" ry="18"/>
<text text-anchor="middle" x="379.595" y="-235.3" font-family="Times,serif" font-size="14.00">dns.json</text>
</g>
<!-- schema2 -->
<g id="node4" class="node"><title>schema2</title>
<ellipse fill="lightblue" stroke="black" cx="379.595" cy="-185" rx="47.3916" ry="18"/>
<text text-anchor="middle" x="379.595" y="-181.3" font-family="Times,serif" font-size="14.00">about.json</text>
</g>
<!-- schema2&#45;&gt;message_router -->
<g id="edge13" class="edge"><title>schema2&#45;&gt;message_router</title>
<path fill="none" stroke="black" d="M379.595,-159C379.595,-156.535 379.595,-154.07 379.595,-151.605"/>
<polygon fill="black" stroke="black" points="383.095,-159.14 379.595,-149.141 376.095,-159.141 383.095,-159.14"/>
</g>
<!-- openwrt1 -->
<g id="node6" class="node"><title>openwrt1</title>
<ellipse fill="none" stroke="black" cx="752.14" cy="-257" rx="50.0912" ry="18"/>
<text text-anchor="middle" x="752.14" y="-253.3" font-family="Times,serif" font-size="14.00">OpenWRT</text>
</g>
<!-- module1&#45;&gt;openwrt1 -->
<g id="edge1" class="edge"><title>module1&#45;&gt;openwrt1</title>
<path fill="none" stroke="black" d="M607.244,-210.622C632.395,-218.728 672.827,-231.76 704.438,-241.948"/>
<polygon fill="black" stroke="black" points="703.769,-245.41 714.361,-245.146 705.917,-238.747 703.769,-245.41"/>
</g>
<!-- debian1 -->
<g id="node7" class="node"><title>debian1</title>
<ellipse fill="none" stroke="black" cx="752.14" cy="-203" rx="36.2938" ry="18"/>
<text text-anchor="middle" x="752.14" y="-199.3" font-family="Times,serif" font-size="14.00">Debian</text>
</g>
<!-- module1&#45;&gt;debian1 -->
<g id="edge2" class="edge"><title>module1&#45;&gt;debian1</title>
<path fill="none" stroke="black" d="M609.774,-203C635.324,-203 674.729,-203 705.452,-203"/>
<polygon fill="black" stroke="black" points="705.506,-206.5 715.506,-203 705.505,-199.5 705.506,-206.5"/>
</g>
<!-- backend1 -->
<g id="node17" class="node"><title>backend1</title>
<ellipse fill="lightgreen" stroke="black" cx="901.686" cy="-226" rx="27" ry="18"/>
<text text-anchor="middle" x="901.686" y="-222.3" font-family="Times,serif" font-size="14.00">dns</text>
</g>
<!-- openwrt1&#45;&gt;backend1 -->
<g id="edge16" class="edge"><title>openwrt1&#45;&gt;backend1</title>
<path fill="none" stroke="black" d="M795.816,-248.034C817.95,-243.383 844.655,-237.772 865.577,-233.377"/>
<polygon fill="black" stroke="black" points="866.569,-236.745 875.636,-231.263 865.13,-229.894 866.569,-236.745"/>
</g>
<!-- debian1&#45;&gt;backend1 -->
<g id="edge17" class="edge"><title>debian1&#45;&gt;backend1</title>
<path fill="none" stroke="black" d="M786.99,-208.277C810.409,-211.927 841.51,-216.775 865.263,-220.478"/>
<polygon fill="black" stroke="black" points="864.857,-223.957 875.277,-222.039 865.936,-217.041 864.857,-223.957"/>
</g>
<!-- openwrt2 -->
<g id="node9" class="node"><title>openwrt2</title>
<ellipse fill="none" stroke="black" cx="752.14" cy="-104" rx="50.0912" ry="18"/>
<text text-anchor="middle" x="752.14" y="-100.3" font-family="Times,serif" font-size="14.00">OpenWRT</text>
</g>
<!-- module2&#45;&gt;openwrt2 -->
<g id="edge3" class="edge"><title>module2&#45;&gt;openwrt2</title>
<path fill="none" stroke="black" d="M613.163,-104C634.904,-104 665.182,-104 691.837,-104"/>
<polygon fill="black" stroke="black" points="691.85,-107.5 701.85,-104 691.85,-100.5 691.85,-107.5"/>
</g>
<!-- debian2 -->
<g id="node10" class="node"><title>debian2</title>
<ellipse fill="none" stroke="black" cx="752.14" cy="-50" rx="36.2938" ry="18"/>
<text text-anchor="middle" x="752.14" y="-46.3" font-family="Times,serif" font-size="14.00">Debian</text>
</g>
<!-- module2&#45;&gt;debian2 -->
<g id="edge4" class="edge"><title>module2&#45;&gt;debian2</title>
<path fill="none" stroke="black" d="M609.774,-95.5625C637.013,-86.7832 679.999,-72.9288 711.424,-62.8005"/>
<polygon fill="black" stroke="black" points="712.742,-66.0531 721.186,-59.6541 710.595,-59.3905 712.742,-66.0531"/>
</g>
<!-- backend2 -->
<g id="node18" class="node"><title>backend2</title>
<ellipse fill="lightblue" stroke="black" cx="901.686" cy="-69" rx="30.5947" ry="18"/>
<text text-anchor="middle" x="901.686" y="-65.3" font-family="Times,serif" font-size="14.00">about</text>
</g>
<!-- openwrt2&#45;&gt;backend2 -->
<g id="edge18" class="edge"><title>openwrt2&#45;&gt;backend2</title>
<path fill="none" stroke="black" d="M794.24,-94.2505C815.783,-89.1401 841.986,-82.9245 863.003,-77.939"/>
<polygon fill="black" stroke="black" points="863.938,-81.3143 872.86,-75.6006 862.323,-74.5033 863.938,-81.3143"/>
</g>
<!-- debian2&#45;&gt;backend2 -->
<g id="edge19" class="edge"><title>debian2&#45;&gt;backend2</title>
<path fill="none" stroke="black" d="M787.733,-54.4547C809.892,-57.3082 838.695,-61.0172 861.669,-63.9756"/>
<polygon fill="black" stroke="black" points="861.404,-67.4704 871.769,-65.2763 862.298,-60.5277 861.404,-67.4704"/>
</g>
<!-- cmdline -->
<g id="node11" class="node"><title>cmdline</title>
<ellipse fill="none" stroke="black" cx="1041.48" cy="-37" rx="39.7935" ry="18"/>
<text text-anchor="middle" x="1041.48" y="-33.3" font-family="Times,serif" font-size="14.00">cmdline</text>
</g>
<!-- file -->
<g id="node12" class="node"><title>file</title>
<ellipse fill="none" stroke="black" cx="1041.48" cy="-91" rx="27" ry="18"/>
<text text-anchor="middle" x="1041.48" y="-87.3" font-family="Times,serif" font-size="14.00">file</text>
</g>
<!-- uci -->
<g id="node13" class="node"><title>uci</title>
<ellipse fill="none" stroke="black" cx="1041.48" cy="-145" rx="27" ry="18"/>
<text text-anchor="middle" x="1041.48" y="-141.3" font-family="Times,serif" font-size="14.00">uci</text>
</g>
<!-- augeas -->
<g id="node14" class="node"><title>augeas</title>
<ellipse fill="none" stroke="black" cx="1041.48" cy="-199" rx="34.394" ry="18"/>
<text text-anchor="middle" x="1041.48" y="-195.3" font-family="Times,serif" font-size="14.00">augeas</text>
</g>
<!-- systemd -->
<g id="node15" class="node"><title>systemd</title>
<ellipse fill="none" stroke="black" cx="1041.48" cy="-253" rx="40.0939" ry="18"/>
<text text-anchor="middle" x="1041.48" y="-249.3" font-family="Times,serif" font-size="14.00">systemd</text>
</g>
<!-- init_d -->
<g id="node16" class="node"><title>init_d</title>
<ellipse fill="none" stroke="black" cx="1041.48" cy="-307" rx="29.4969" ry="18"/>
<text text-anchor="middle" x="1041.48" y="-303.3" font-family="Times,serif" font-size="14.00">init.d</text>
</g>
<!-- backend1&#45;&gt;uci -->
<g id="edge20" class="edge"><title>backend1&#45;&gt;uci</title>
<path fill="none" stroke="black" d="M922.429,-214.395C945.861,-200.621 985.121,-177.542 1011.88,-161.814"/>
<polygon fill="black" stroke="black" points="1013.93,-164.669 1020.78,-156.584 1010.38,-158.634 1013.93,-164.669"/>
</g>
<!-- backend1&#45;&gt;augeas -->
<g id="edge21" class="edge"><title>backend1&#45;&gt;augeas</title>
<path fill="none" stroke="black" d="M927.96,-221.048C947.858,-217.149 976.003,-211.634 999.166,-207.095"/>
<polygon fill="black" stroke="black" points="999.939,-210.511 1009.08,-205.153 998.593,-203.641 999.939,-210.511"/>
</g>
<!-- backend1&#45;&gt;systemd -->
<g id="edge22" class="edge"><title>backend1&#45;&gt;systemd</title>
<path fill="none" stroke="black" d="M927.96,-230.952C946.489,-234.583 972.168,-239.614 994.317,-243.954"/>
<polygon fill="black" stroke="black" points="993.721,-247.404 1004.21,-245.892 995.067,-240.535 993.721,-247.404"/>
</g>
<!-- backend1&#45;&gt;init_d -->
<g id="edge23" class="edge"><title>backend1&#45;&gt;init_d</title>
<path fill="none" stroke="black" d="M922.429,-237.605C945.461,-251.145 983.787,-273.674 1010.5,-289.376"/>
<polygon fill="black" stroke="black" points="1009.03,-292.569 1019.42,-294.619 1012.57,-286.534 1009.03,-292.569"/>
</g>
<!-- backend2&#45;&gt;cmdline -->
<g id="edge25" class="edge"><title>backend2&#45;&gt;cmdline</title>
<path fill="none" stroke="black" d="M930.24,-62.6012C949.021,-58.2397 974.306,-52.3678 995.924,-47.3477"/>
<polygon fill="black" stroke="black" points="996.929,-50.7075 1005.88,-45.0361 995.345,-43.8889 996.929,-50.7075"/>
</g>
<!-- backend2&#45;&gt;file -->
<g id="edge24" class="edge"><title>backend2&#45;&gt;file</title>
<path fill="none" stroke="black" d="M931.572,-73.6119C952.925,-77.021 982.123,-81.6827 1004.91,-85.3212"/>
<polygon fill="black" stroke="black" points="1004.45,-88.7923 1014.88,-86.9127 1005.56,-81.8798 1004.45,-88.7923"/>
</g>
<!-- bus_msg -->
<g id="node19" class="node"><title>bus_msg</title>
<polygon fill="none" stroke="black" points="257.095,-574 100.095,-574 100.095,-536 257.095,-536 257.095,-574"/>
<text text-anchor="start" x="108.095" y="-558.8" font-family="Times,serif" font-size="14.00">foris&#45;controller&#45;about.get </text>
<text text-anchor="start" x="108.095" y="-543.8" font-family="Times,serif" font-size="14.00">{&#39;data&#39;: {}}</text>
</g>
<!-- router_msg -->
<g id="node20" class="node"><title>router_msg</title>
<polygon fill="none" stroke="black" points="437.595,-604 321.595,-604 321.595,-506 437.595,-506 437.595,-604"/>
<text text-anchor="start" x="329.595" y="-588.8" font-family="Times,serif" font-size="14.00">{</text>
<text text-anchor="start" x="329.595" y="-573.8" font-family="Times,serif" font-size="14.00"> &#160;&#39;module&#39;: &#39;about&#39;,</text>
<text text-anchor="start" x="329.595" y="-558.8" font-family="Times,serif" font-size="14.00"> &#160;&#39;kind&#39;: &#39;request&#39;,</text>
<text text-anchor="start" x="329.595" y="-543.8" font-family="Times,serif" font-size="14.00"> &#160;&#39;action&#39;: &#160;&#39;get&#39;, </text>
<text text-anchor="start" x="329.595" y="-528.8" font-family="Times,serif" font-size="14.00"> &#160;&#39;data&#39;: {} </text>
<text text-anchor="start" x="329.595" y="-513.8" font-family="Times,serif" font-size="14.00">}</text>
</g>
<!-- bus_msg&#45;&gt;router_msg -->
<g id="edge5" class="edge"><title>bus_msg&#45;&gt;router_msg</title>
<path fill="none" stroke="black" d="M257.103,-555C274.984,-555 293.862,-555 311.268,-555"/>
<polygon fill="black" stroke="black" points="311.328,-558.5 321.328,-555 311.327,-551.5 311.328,-558.5"/>
</g>
<!-- module_msg -->
<g id="node21" class="node"><title>module_msg</title>
<polygon fill="none" stroke="black" points="631.595,-574 533.595,-574 533.595,-506 631.595,-506 631.595,-574"/>
<text text-anchor="start" x="541.595" y="-558.8" font-family="Times,serif" font-size="14.00">{</text>
<text text-anchor="start" x="541.595" y="-543.8" font-family="Times,serif" font-size="14.00"> &#160;&#39;action&#39;: &#39;get&#39;, </text>
<text text-anchor="start" x="541.595" y="-528.8" font-family="Times,serif" font-size="14.00"> &#160;&#39;data&#39;: {} </text>
<text text-anchor="start" x="541.595" y="-513.8" font-family="Times,serif" font-size="14.00">}</text>
</g>
<!-- router_msg&#45;&gt;module_msg -->
<g id="edge6" class="edge"><title>router_msg&#45;&gt;module_msg</title>
<path fill="none" stroke="black" d="M437.655,-550.742C464.516,-548.737 496.504,-546.35 523.495,-544.336"/>
<polygon fill="black" stroke="black" points="523.862,-547.818 533.574,-543.584 523.341,-540.838 523.862,-547.818"/>
</g>
<!-- backend_msg -->
<g id="node22" class="node"><title>backend_msg</title>
<polygon fill="none" stroke="black" points="965.186,-483.5 838.186,-483.5 838.186,-430.5 965.186,-430.5 965.186,-483.5"/>
<text text-anchor="start" x="846.186" y="-468.3" font-family="Times,serif" font-size="14.00">get_temperature() </text>
<text text-anchor="start" x="846.186" y="-453.3" font-family="Times,serif" font-size="14.00">get_serial_number()</text>
<text text-anchor="start" x="846.186" y="-438.3" font-family="Times,serif" font-size="14.00"> ...</text>
</g>
<!-- module_msg&#45;&gt;backend_msg -->
<g id="edge7" class="edge"><title>module_msg&#45;&gt;backend_msg</title>
<path fill="none" stroke="black" d="M631.754,-527.394C684.025,-513.712 768.075,-491.711 828.302,-475.947"/>
<polygon fill="black" stroke="black" points="829.341,-479.293 838.129,-473.375 827.569,-472.521 829.341,-479.293"/>
</g>
<!-- module_msg_back -->
<g id="node23" class="node"><title>module_msg_back</title>
<polygon fill="none" stroke="black" points="666.095,-481 499.095,-481 499.095,-353 666.095,-353 666.095,-481"/>
<text text-anchor="start" x="507.095" y="-465.8" font-family="Times,serif" font-size="14.00">{</text>
<text text-anchor="start" x="507.095" y="-450.8" font-family="Times,serif" font-size="14.00"> &#160;&#39;action&#39;: &#39;get&#39;, </text>
<text text-anchor="start" x="507.095" y="-435.8" font-family="Times,serif" font-size="14.00"> &#160;&#39;data&#39;: { </text>
<text text-anchor="start" x="507.095" y="-420.8" font-family="Times,serif" font-size="14.00"> &#160;&#160;&#160;&#160;&#39;temperature&#39;: 28, </text>
<text text-anchor="start" x="507.095" y="-405.8" font-family="Times,serif" font-size="14.00"> &#160;&#160;&#160;&#160;&#39;serial_number&#39;: &#39;XXX&#39;, </text>
<text text-anchor="start" x="507.095" y="-390.8" font-family="Times,serif" font-size="14.00"> &#160;&#160;&#160;&#160;...</text>
<text text-anchor="start" x="507.095" y="-375.8" font-family="Times,serif" font-size="14.00"> &#160;} </text>
<text text-anchor="start" x="507.095" y="-360.8" font-family="Times,serif" font-size="14.00">}</text>
</g>
<!-- backend_msg&#45;&gt;module_msg_back -->
<g id="edge8" class="edge"><title>backend_msg&#45;&gt;module_msg_back</title>
<path fill="none" stroke="black" d="M838.057,-449.1C792.016,-443.292 728.686,-435.303 676.725,-428.748"/>
<polygon fill="black" stroke="black" points="676.852,-425.236 666.492,-427.457 675.976,-432.181 676.852,-425.236"/>
</g>
<!-- router_msg_back -->
<g id="node24" class="node"><title>router_msg_back</title>
<polygon fill="none" stroke="black" points="463.095,-488 296.095,-488 296.095,-330 463.095,-330 463.095,-488"/>
<text text-anchor="start" x="304.095" y="-472.8" font-family="Times,serif" font-size="14.00">{</text>
<text text-anchor="start" x="304.095" y="-457.8" font-family="Times,serif" font-size="14.00"> &#160;&#39;module&#39;: &#39;about&#39;,</text>
<text text-anchor="start" x="304.095" y="-442.8" font-family="Times,serif" font-size="14.00"> &#160;&#39;kind&#39;: &#39;reply&#39;,</text>
<text text-anchor="start" x="304.095" y="-427.8" font-family="Times,serif" font-size="14.00"> &#160;&#39;action&#39;: &#39;get&#39;, </text>
<text text-anchor="start" x="304.095" y="-412.8" font-family="Times,serif" font-size="14.00"> &#160;&#39;data&#39;: { </text>
<text text-anchor="start" x="304.095" y="-397.8" font-family="Times,serif" font-size="14.00"> &#160;&#160;&#160;&#160;&#39;temperature&#39;: 28, </text>
<text text-anchor="start" x="304.095" y="-382.8" font-family="Times,serif" font-size="14.00"> &#160;&#160;&#160;&#160;&#39;serial_number&#39;: &#39;XXX&#39;, </text>
<text text-anchor="start" x="304.095" y="-367.8" font-family="Times,serif" font-size="14.00"> &#160;&#160;&#160;&#160;...</text>
<text text-anchor="start" x="304.095" y="-352.8" font-family="Times,serif" font-size="14.00"> &#160;} </text>
<text text-anchor="start" x="304.095" y="-337.8" font-family="Times,serif" font-size="14.00">}</text>
</g>
<!-- module_msg_back&#45;&gt;router_msg_back -->
<g id="edge9" class="edge"><title>module_msg_back&#45;&gt;router_msg_back</title>
<path fill="none" stroke="black" d="M498.966,-413.711C490.483,-413.374 481.825,-413.029 473.243,-412.687"/>
<polygon fill="black" stroke="black" points="473.35,-409.189 463.219,-412.289 473.072,-416.184 473.35,-409.189"/>
</g>
<!-- bus_msg_back -->
<g id="node25" class="node"><title>bus_msg_back</title>
<polygon fill="none" stroke="black" points="260.095,-473 97.0946,-473 97.0946,-345 260.095,-345 260.095,-473"/>
<text text-anchor="start" x="105.095" y="-457.8" font-family="Times,serif" font-size="14.00">foris&#45;controller&#45;about.get </text>
<text text-anchor="start" x="105.095" y="-442.8" font-family="Times,serif" font-size="14.00">{</text>
<text text-anchor="start" x="105.095" y="-427.8" font-family="Times,serif" font-size="14.00"> &#160;&#39;data&#39;: {</text>
<text text-anchor="start" x="105.095" y="-412.8" font-family="Times,serif" font-size="14.00"> &#160;&#160;&#160;&#39;temperature&#39;: 28, </text>
<text text-anchor="start" x="105.095" y="-397.8" font-family="Times,serif" font-size="14.00"> &#160;&#160;&#160;&#39;serial_number&#39;: &#39;XXX&#39;, </text>
<text text-anchor="start" x="105.095" y="-382.8" font-family="Times,serif" font-size="14.00"> &#160;&#160;&#160;...</text>
<text text-anchor="start" x="105.095" y="-367.8" font-family="Times,serif" font-size="14.00"> &#160;}</text>
<text text-anchor="start" x="105.095" y="-352.8" font-family="Times,serif" font-size="14.00">}</text>
</g>
<!-- router_msg_back&#45;&gt;bus_msg_back -->
<g id="edge10" class="edge"><title>router_msg_back&#45;&gt;bus_msg_back</title>
<path fill="none" stroke="black" d="M295.883,-409C287.505,-409 278.965,-409 270.507,-409"/>
<polygon fill="black" stroke="black" points="270.249,-405.5 260.249,-409 270.249,-412.5 270.249,-405.5"/>
</g>
<!-- client -->
<g id="node26" class="node"><title>client</title>
<ellipse fill="none" stroke="black" cx="30.5473" cy="-131" rx="30.5947" ry="18"/>
<text text-anchor="middle" x="30.5473" y="-127.3" font-family="Times,serif" font-size="14.00">client</text>
</g>
<!-- client&#45;&gt;ubus -->
<g id="edge11" class="edge"><title>client&#45;&gt;ubus</title>
<path fill="none" stroke="black" d="M61.1021,-131C84.1485,-131 116.277,-131 140.957,-131"/>
<polygon fill="black" stroke="black" points="141.03,-134.5 151.03,-131 141.03,-127.5 141.03,-134.5"/>
</g>
</g>
</svg>
